<svg xmlns="http://www.w3.org/2000/svg" viewBox="0 0 200 200" width="200" height="200">
  <defs>
    <linearGradient id="gnGold" x1="0%" y1="0%" x2="100%" y2="100%">
      <stop offset="0%" stop-color="#5B9BD5"/>
      <stop offset="40%" stop-color="#4472C4"/>
      <stop offset="100%" stop-color="#2F5597"/>
    </linearGradient>
    <linearGradient id="gnGoldV" x1="0%" y1="0%" x2="0%" y2="100%">
      <stop offset="0%" stop-color="#5B9BD5"/>
      <stop offset="100%" stop-color="#2F5597"/>
    </linearGradient>
  </defs>
  <rect x="8" y="8" width="184" height="184" rx="18" ry="18" fill="none" stroke="url(#gnGold)" stroke-width="5"/>
  <rect x="20" y="20" width="160" height="160" rx="12" ry="12" fill="none" stroke="url(#gnGold)" stroke-width="1.5" opacity="0.4"/>
  <g transform="translate(100,60)">
    <ellipse cx="0" cy="0" rx="34" ry="24" fill="none" stroke="url(#gnGoldV)" stroke-width="3"/>
    <ellipse cx="0" cy="0" rx="22" ry="14" fill="none" stroke="url(#gnGold)" stroke-width="1" opacity="0.4"/>
    <line x1="-11" y1="-14" x2="-11" y2="14" stroke="url(#gnGold)" stroke-width="1" opacity="0.5"/>
    <line x1="11" y1="-14" x2="11" y2="14" stroke="url(#gnGold)" stroke-width="1" opacity="0.5"/>
    <line x1="0" y1="-24" x2="0" y2="24" stroke="url(#gnGold)" stroke-width="1" opacity="0.5"/>
    <ellipse cx="-40" cy="-4" rx="11" ry="8" fill="none" stroke="url(#gnGoldV)" stroke-width="2.5"/>
    <circle cx="-44" cy="-6" r="2.2" fill="#5B9BD5"/>
    <path d="M34,0 Q44,-5 47,1" fill="none" stroke="url(#gnGold)" stroke-width="2.5"/>
    <path d="M-20,20 Q-26,30 -22,34" fill="none" stroke="url(#gnGold)" stroke-width="2.5"/>
    <path d="M-8,22 Q-12,32 -8,36" fill="none" stroke="url(#gnGold)" stroke-width="2.5"/>
    <path d="M8,22 Q12,32 8,36" fill="none" stroke="url(#gnGold)" stroke-width="2.5"/>
    <path d="M20,20 Q26,30 22,34" fill="none" stroke="url(#gnGold)" stroke-width="2.5"/>
  </g>
  <text x="100" y="128" text-anchor="middle" font-family="serif" font-size="32" font-weight="bold" fill="url(#gnGold)" letter-spacing="6">自驭</text>
  <circle cx="36" cy="36" r="3.5" fill="#5B9BD5" opacity="0.45"/>
  <circle cx="164" cy="36" r="3.5" fill="#5B9BD5" opacity="0.45"/>
  <circle cx="36" cy="164" r="3.5" fill="#5B9BD5" opacity="0.45"/>
  <circle cx="164" cy="164" r="3.5" fill="#5B9BD5" opacity="0.45"/>
</svg>
